<svg width="308" height="98" viewBox="0 0 308 98" fill="none" xmlns="http://www.w3.org/2000/svg">
<path d="M0.739014 0.737546C0.739014 0.737546 1.12758 0.726017 1.76968 0.737546H307.295V54.7971V97.4628C307.295 97.4628 307.273 95.3983 307.273 94.9058C307.273 94.4132 307.169 93.89 307.047 93.4761C306.925 93.0622 306.5 92.36 306.297 92.1128C306.094 91.8655 305.2 90.601 302.633 89.6245C300.066 88.648 297.016 88.7212 297.016 88.7212H261.242H164.415H139.705H114.786H95.2303H76.4097C71.8678 88.7212 69.2367 88.8535 64.6245 88.7212C60.933 88.6152 58.8253 88.4041 55.2495 87.4808C51.9509 86.6291 50.1297 85.9274 47.0987 84.3719C43.1371 82.3389 41.0406 80.8258 37.8042 77.7675C35.7736 75.8487 34.7082 74.6698 33.0523 72.4196C30.794 69.3507 29.7417 67.4254 28.3003 63.8983C26.9049 60.4835 26.3478 58.4407 25.7713 54.7971C25.2408 51.4436 25.3203 46.1147 25.3203 46.1147V38.8338C25.3203 38.8338 25.4365 29.8331 25.3203 24.1591C25.2859 22.4814 25.279 21.5287 24.9981 19.8743C24.2813 15.6519 23.1681 13.2572 20.6489 9.80665C17.8955 6.03545 14.5453 3.97428 10.2394 2.16813C7.42318 0.98683 3.58416 0.770125 1.76968 0.737546H0.739014Z" fill="#252525"/>
<path d="M0.739014 0.737546C0.739014 0.737546 6.42658 0.568796 10.2394 2.16813C14.5453 3.97428 17.8955 6.03545 20.6489 9.80665C23.1681 13.2572 24.2813 15.6519 24.9981 19.8743C25.279 21.5287 25.2859 22.4814 25.3203 24.1591C25.4365 29.8331 25.3203 38.8338 25.3203 38.8338V46.1147C25.3203 46.1147 25.2408 51.4436 25.7713 54.7971C26.3478 58.4407 26.9049 60.4835 28.3003 63.8983C29.7417 67.4254 30.794 69.3507 33.0523 72.4196C34.7082 74.6698 35.7736 75.8487 37.8042 77.7675C41.0406 80.8258 43.1371 82.3389 47.0987 84.3719C50.1297 85.9274 51.9509 86.6291 55.2495 87.4808C58.8253 88.4041 60.933 88.6152 64.6245 88.7212C69.2367 88.8535 71.8678 88.7212 76.4097 88.7212C83.8201 88.7212 95.2303 88.7212 95.2303 88.7212H114.786H139.705H164.415H261.242H297.016C297.016 88.7212 300.066 88.648 302.633 89.6245C305.2 90.601 306.094 91.8655 306.297 92.1128C306.5 92.36 306.925 93.0622 307.047 93.4761C307.169 93.89 307.273 94.4132 307.273 94.9058C307.273 95.3983 307.295 97.4628 307.295 97.4628V54.7971V0.737546H0.739014Z" stroke="#252525" stroke-width="0.1"/>
</svg>
