<svg width="1376" height="630" viewBox="0 0 1376 630" fill="none" xmlns="http://www.w3.org/2000/svg">
<path d="M0 23C0 10.2975 10.2975 0 23 0H1070C1082.7 0 1093 10.2975 1093 23V48C1093 70.0914 1110.91 88 1133 88H1366C1371.12 88 1376 91.7266 1376 96.8457V607C1376 619.703 1365.7 630 1353 630H1104C1091.3 630 1081 619.703 1081 607C1081 589.327 1066.67 575 1049 575H328C310.327 575 296 589.327 296 607C296 619.703 285.703 630 273 630H23C10.2975 630 0 619.703 0 607V23Z" fill="#D9D9D9" fill-opacity="0.8"/>
</svg>
