<svg width="428" height="254" viewBox="0 0 428 254" fill="none" xmlns="http://www.w3.org/2000/svg">
<path d="M0 243.192V59C0 52.3726 5.37258 47 12 47H43C50.732 47 57 40.732 57 33V12C57 5.37258 62.3726 0 69 0H224C230.627 0 236 5.37258 236 12V26C236 37.0457 244.954 46 256 46H416C422.627 46 428 51.3726 428 58V243.192C428 248.715 423.523 253.192 418 253.192H326C319.373 253.192 314 247.819 314 241.192V237C314 230.373 308.627 225 302 225H127C120.373 225 115 230.373 115 237V241.192C115 247.819 109.627 253.192 103 253.192H10C4.47715 253.192 0 248.715 0 243.192Z" fill="#D9D9D9"/>
</svg>
