<svg width="1377" height="631" viewBox="0 0 1377 631" fill="none" xmlns="http://www.w3.org/2000/svg">
<mask id="mask0_6583_499" style="mask-type:alpha" maskUnits="userSpaceOnUse" x="0" y="0" width="1377" height="631">
<path d="M0.281128 23.6235C0.281128 10.921 10.5786 0.623535 23.2811 0.623535H1070.28C1082.98 0.623535 1093.28 10.921 1093.28 23.6235V48.6235C1093.28 70.7149 1111.19 88.6235 1133.28 88.6235H1366.28C1371.4 88.6235 1376.28 92.3501 1376.28 97.4692V607.624C1376.28 620.326 1365.98 630.624 1353.28 630.624H1104.28C1091.58 630.624 1081.28 620.326 1081.28 607.624C1081.28 589.95 1066.95 575.624 1049.28 575.624H328.281C310.608 575.624 296.281 589.95 296.281 607.624C296.281 620.326 285.984 630.624 273.281 630.624H23.2811C10.5786 630.624 0.281128 620.326 0.281128 607.624V23.6235Z" fill="#D9D9D9"/>
</mask>
<g mask="url(#mask0_6583_499)">
<path d="M-0.718872 32.6235C-0.718872 14.9504 13.608 0.623535 31.2811 0.623535H1367.28C1371.7 0.623535 1375.28 4.20526 1375.28 8.62354V598.624C1375.28 616.297 1360.95 630.624 1343.28 630.624H31.2811C13.608 630.624 -0.718872 616.297 -0.718872 598.624V32.6235Z" fill="#D9D9D9"/>
</g>
</svg>
