<svg width="73" height="64" viewBox="0 0 73 64" fill="none" xmlns="http://www.w3.org/2000/svg">
<path d="M0.891743 60.6436C0.891743 60.6436 0.882635 60.2748 0.891743 59.7984V1.42285H70.4243L68.2778 1.44629C68.2778 1.44629 67.0968 1.61467 66.38 1.82994C65.6051 2.06262 65.1741 2.22371 64.4528 2.59012C63.7135 2.96566 63.3245 3.23219 62.6613 3.72994C61.7196 4.43666 61.2029 4.87717 60.4626 5.79271C59.7448 6.68056 59.4229 7.2543 58.9426 8.29013C58.4632 9.32415 58.1993 10.1392 58.1045 10.8799C57.8446 12.91 57.8446 16.042 57.8446 16.042V23.822V30.7396C57.8446 32.1399 57.9418 32.9284 57.8446 34.3253L57.8399 34.3926C57.7208 36.1048 57.6311 37.3934 57.0888 39.0336C56.3835 41.1667 55.7546 42.0564 54.2429 43.7183C53.1763 44.8909 52.4596 45.4714 51.1014 46.2887C50.2346 46.8102 49.7162 47.0603 48.769 47.4152C48.0843 47.6717 47.6882 47.7887 46.9761 47.9547C45.9395 48.1964 44.2761 48.3268 44.2761 48.3268H34.4824H15.5C14.4192 48.3268 13.8113 48.2615 12.7325 48.3268C11.6457 48.3927 11.0224 48.4049 9.96507 48.6645C8.61529 48.996 7.86859 49.3117 6.67791 50.0287C5.50748 50.7334 4.89473 51.2396 3.97542 52.2503C3.06061 53.256 2.61804 53.9108 2.02651 55.1349C1.44495 56.3383 1.18393 57.0738 0.98709 58.3958C0.924619 58.8154 0.900245 59.3537 0.891743 59.7984V60.6436Z" fill="#252525" stroke="#252525"/>
</svg>
