<svg width="72" height="63" viewBox="0 0 72 63" fill="none" xmlns="http://www.w3.org/2000/svg">
<path d="M0.822407 60.3231C0.822407 60.3231 0.8133 59.9542 0.822407 59.4779V1.10229H70.355L68.2085 1.12573C68.2085 1.12573 67.0275 1.29411 66.3106 1.50938C65.5357 1.74206 65.1047 1.90316 64.3834 2.26957C63.6441 2.64511 63.2551 2.91164 62.5919 3.40938C61.6503 4.1161 61.1335 4.55662 60.3933 5.47215C59.6755 6.36 59.3535 6.93374 58.8733 7.96957C58.3939 9.00359 58.13 9.81866 58.0351 10.5594C57.7752 12.5894 57.7752 15.7215 57.7752 15.7215V23.5015V30.419C57.7752 31.8193 57.8725 32.6078 57.7752 34.0048L57.7706 34.072C57.6514 35.7842 57.5618 37.0729 57.0194 38.7131C56.3142 40.8461 55.6853 41.7358 54.1736 43.3977C53.1069 44.5703 52.3903 45.1508 51.032 45.9681C50.1653 46.4896 49.6469 46.7398 48.6997 47.0946C48.0149 47.3511 47.6188 47.4681 46.9067 47.6341C45.8702 47.8758 44.2068 48.0063 44.2068 48.0063H34.413H15.4306C14.3499 48.0063 13.742 47.941 12.6632 48.0063C11.5764 48.0721 10.9531 48.0844 9.89573 48.344C8.54596 48.6754 7.79926 48.9912 6.60857 49.7081C5.43815 50.4129 4.8254 50.9191 3.90608 51.9297C2.99128 52.9354 2.5487 53.5902 1.95717 54.8143C1.37561 56.0177 1.1146 56.7532 0.917754 58.0752C0.855283 58.4948 0.830909 59.0332 0.822407 59.4779V60.3231Z" fill="#1B1B1B" stroke="#1B1B1B"/>
</svg>
