<svg width="125" height="29" viewBox="0 0 125 29" fill="none" xmlns="http://www.w3.org/2000/svg">
<path d="M3.48584 28.3881L0 0.611886H6.34461L8.13364 18.1456L9.95956 0.611886H16.0091L17.7428 18.1456L19.4765 0.611886H25.8948L22.3537 28.3881H14.5705L12.9474 15.0208L11.3982 28.3881H3.48584Z" fill="#FCB001"/>
<path d="M27.5363 28.3881V0.611886H33.8072V28.3881H27.5363Z" fill="#FCB001"/>
<path d="M36.3893 28.3881V0.611886H43.0659L46.0537 13.9161V0.611886H52.3246V28.3881H45.98L42.7339 14.5V28.3881H36.3893Z" fill="#FCB001"/>
<path d="M62.7637 28.6406C60.4152 28.6406 58.5216 28.0146 57.083 26.7626C55.6567 25.5105 54.9436 23.7587 54.9436 21.5072V8.69224C54.9436 5.99879 55.5645 3.93662 56.8064 2.50572C58.0605 1.07482 60.0955 0.359375 62.9112 0.359375C64.4482 0.359375 65.813 0.601365 67.0057 1.08534C68.2107 1.56932 69.1574 2.29529 69.846 3.26325C70.5346 4.22069 70.8788 5.43064 70.8788 6.8931V11.6908H64.4236V7.58751C64.4236 6.75632 64.3006 6.1987 64.0547 5.91462C63.8088 5.62002 63.4276 5.47273 62.9112 5.47273C62.3087 5.47273 61.9029 5.66211 61.6939 6.04088C61.4849 6.40912 61.3804 6.90362 61.3804 7.52438V21.4283C61.3804 22.1963 61.5095 22.7382 61.7677 23.0538C62.0382 23.3695 62.4194 23.5273 62.9112 23.5273C63.4645 23.5273 63.8518 23.3326 64.0731 22.9433C64.3068 22.5541 64.4236 22.049 64.4236 21.4283V16.4254H70.9526V21.6808C70.9526 24.1217 70.2333 25.8946 68.7947 26.9993C67.3561 28.0935 65.3458 28.6406 62.7637 28.6406Z" fill="#FCB001"/>
<path d="M72.2437 28.3881L75.3791 0.611886H86.3899L89.47 28.3881H83.3283L82.8672 23.906H78.9572L78.5514 28.3881H72.2437ZM79.4182 19.4713H82.3692L80.9491 5.34647H80.654L79.4182 19.4713Z" fill="#FCB001"/>
<path d="M91.4619 28.3881V0.611886H101.421C103.081 0.611886 104.336 0.938046 105.184 1.59037C106.032 2.23217 106.598 3.137 106.881 4.30486C107.176 5.4622 107.323 6.82471 107.323 8.39239C107.323 9.90745 107.096 11.1174 106.641 12.0222C106.198 12.9271 105.356 13.5531 104.114 13.9003C105.135 14.0791 105.848 14.5158 106.254 15.2102C106.672 15.8941 106.881 16.7831 106.881 17.8773V28.3881H100.481V17.5144C100.481 16.7042 100.284 16.2044 99.8907 16.0151C99.5095 15.8152 98.8886 15.7152 98.0279 15.7152V28.3881H91.4619ZM98.0647 10.9017H99.6325C100.53 10.9017 100.979 10.0653 100.979 8.39239C100.979 7.30869 100.88 6.5985 100.684 6.26182C100.487 5.92514 100.118 5.7568 99.5771 5.7568H98.0647V10.9017Z" fill="#FCB001"/>
<path d="M117.172 28.6406C114.209 28.6406 112.07 28.0093 110.754 26.7468C109.451 25.4842 108.799 23.4747 108.799 20.7181V18.0036H115.217V21.4756C115.217 22.1174 115.328 22.6224 115.549 22.9907C115.783 23.3484 116.183 23.5273 116.748 23.5273C117.338 23.5273 117.744 23.38 117.965 23.0854C118.199 22.7908 118.316 22.3068 118.316 21.6334C118.316 20.7812 118.217 20.071 118.021 19.5029C117.824 18.9242 117.48 18.3771 116.988 17.8616C116.508 17.3355 115.838 16.7253 114.978 16.0308L112.063 13.6636C109.887 11.9065 108.799 9.89693 108.799 7.63485C108.799 5.26756 109.438 3.46316 110.717 2.22164C112.008 0.980132 113.871 0.359375 116.305 0.359375C119.281 0.359375 121.39 1.038 122.632 2.39525C123.886 3.75249 124.513 5.81467 124.513 8.58177H117.91V6.67215C117.91 6.29339 117.781 5.99879 117.523 5.78836C117.277 5.57794 116.939 5.47273 116.508 5.47273C115.992 5.47273 115.611 5.59898 115.365 5.85149C115.131 6.09348 115.014 6.40912 115.014 6.79841C115.014 7.1877 115.137 7.60855 115.383 8.06097C115.629 8.51338 116.115 9.03419 116.84 9.62338L120.584 12.7009C121.334 13.3111 122.023 13.9582 122.65 14.642C123.277 15.3154 123.781 16.1045 124.162 17.0093C124.544 17.9036 124.734 18.9979 124.734 20.292C124.734 22.9013 124.169 24.9476 123.037 26.4312C121.919 27.9041 119.963 28.6406 117.172 28.6406Z" fill="#FCB001"/>
</svg>
