<svg width="128" height="32" viewBox="0 0 128 32" fill="none" xmlns="http://www.w3.org/2000/svg">
<mask id="path-1-outside-1_604_2242" maskUnits="userSpaceOnUse" x="0" y="0.779297" width="128" height="31" fill="black">
<rect fill="white" y="0.779297" width="128" height="31"/>
<path d="M5.48584 29.808L2 2.03181H8.34461L10.1336 19.5656L11.9596 2.03181H18.0091L19.7428 19.5656L21.4765 2.03181H27.8948L24.3537 29.808H16.5705L14.9474 16.4407L13.3982 29.808H5.48584Z"/>
<path d="M29.5363 29.808V2.03181H35.8072V29.808H29.5363Z"/>
<path d="M38.3893 29.808V2.03181H45.0659L48.0537 15.336V2.03181H54.3246V29.808H47.98L44.7339 15.9199V29.808H38.3893Z"/>
<path d="M64.7637 30.0605C62.4152 30.0605 60.5216 29.4345 59.083 28.1825C57.6567 26.9305 56.9436 25.1787 56.9436 22.9271V10.1122C56.9436 7.41871 57.5645 5.35654 58.8064 3.92564C60.0605 2.49475 62.0955 1.7793 64.9112 1.7793C66.4482 1.7793 67.813 2.02129 69.0057 2.50527C70.2107 2.98925 71.1574 3.71522 71.846 4.68318C72.5346 5.64061 72.8788 6.85056 72.8788 8.31302V13.1107H66.4236V9.00743C66.4236 8.17625 66.3006 7.61862 66.0547 7.33454C65.8088 7.03995 65.4276 6.89265 64.9112 6.89265C64.3087 6.89265 63.9029 7.08203 63.6939 7.4608C63.4849 7.82904 63.3804 8.32354 63.3804 8.9443V22.8482C63.3804 23.6163 63.5095 24.1581 63.7677 24.4737C64.0382 24.7894 64.4194 24.9472 64.9112 24.9472C65.4645 24.9472 65.8518 24.7526 66.0731 24.3633C66.3068 23.974 66.4236 23.469 66.4236 22.8482V17.8453H72.9526V23.1007C72.9526 25.5416 72.2333 27.3145 70.7947 28.4192C69.3561 29.5134 67.3458 30.0605 64.7637 30.0605Z"/>
<path d="M74.2437 29.808L77.3791 2.03181H88.3899L91.47 29.808H85.3283L84.8672 25.326H80.9572L80.5514 29.808H74.2437ZM81.4182 20.8912H84.3692L82.9491 6.76639H82.654L81.4182 20.8912Z"/>
<path d="M93.4619 29.808V2.03181H103.421C105.081 2.03181 106.336 2.35797 107.184 3.01029C108.032 3.65209 108.598 4.55692 108.881 5.72478C109.176 6.88213 109.323 8.24463 109.323 9.81231C109.323 11.3274 109.096 12.5373 108.641 13.4422C108.198 14.347 107.356 14.973 106.114 15.3202C107.135 15.4991 107.848 15.9357 108.254 16.6301C108.672 17.314 108.881 18.203 108.881 19.2973V29.808H102.481V18.9343C102.481 18.1241 102.284 17.6244 101.891 17.435C101.509 17.2351 100.889 17.1351 100.028 17.1351V29.808H93.4619ZM100.065 12.3216H101.632C102.53 12.3216 102.979 11.4852 102.979 9.81231C102.979 8.72861 102.88 8.01843 102.684 7.68175C102.487 7.34506 102.118 7.17672 101.577 7.17672H100.065V12.3216Z"/>
<path d="M119.172 30.0605C116.209 30.0605 114.07 29.4293 112.754 28.1667C111.451 26.9042 110.799 24.8946 110.799 22.138V19.4235H117.217V22.8955C117.217 23.5373 117.328 24.0424 117.549 24.4106C117.783 24.7683 118.183 24.9472 118.748 24.9472C119.338 24.9472 119.744 24.7999 119.965 24.5053C120.199 24.2107 120.316 23.7267 120.316 23.0534C120.316 22.2011 120.217 21.4909 120.021 20.9228C119.824 20.3441 119.48 19.797 118.988 19.2815C118.508 18.7554 117.838 18.1452 116.978 17.4508L114.063 15.0835C111.887 13.3264 110.799 11.3169 110.799 9.05477C110.799 6.68748 111.438 4.88308 112.717 3.64157C114.008 2.40005 115.871 1.7793 118.305 1.7793C121.281 1.7793 123.39 2.45792 124.632 3.81517C125.886 5.17242 126.513 7.23459 126.513 10.0017H119.91V8.09208C119.91 7.71331 119.781 7.41871 119.523 7.20829C119.277 6.99786 118.939 6.89265 118.508 6.89265C117.992 6.89265 117.611 7.0189 117.365 7.27141C117.131 7.5134 117.014 7.82904 117.014 8.21833C117.014 8.60762 117.137 9.02847 117.383 9.48089C117.629 9.9333 118.115 10.4541 118.84 11.0433L122.584 14.1208C123.334 14.731 124.023 15.3781 124.65 16.062C125.277 16.7353 125.781 17.5244 126.162 18.4293C126.544 19.3236 126.734 20.4178 126.734 21.7119C126.734 24.3212 126.169 26.3676 125.037 27.8511C123.919 29.3241 121.963 30.0605 119.172 30.0605Z"/>
</mask>
<path d="M5.48584 29.808L2 2.03181H8.34461L10.1336 19.5656L11.9596 2.03181H18.0091L19.7428 19.5656L21.4765 2.03181H27.8948L24.3537 29.808H16.5705L14.9474 16.4407L13.3982 29.808H5.48584Z" fill="black"/>
<path d="M29.5363 29.808V2.03181H35.8072V29.808H29.5363Z" fill="black"/>
<path d="M38.3893 29.808V2.03181H45.0659L48.0537 15.336V2.03181H54.3246V29.808H47.98L44.7339 15.9199V29.808H38.3893Z" fill="black"/>
<path d="M64.7637 30.0605C62.4152 30.0605 60.5216 29.4345 59.083 28.1825C57.6567 26.9305 56.9436 25.1787 56.9436 22.9271V10.1122C56.9436 7.41871 57.5645 5.35654 58.8064 3.92564C60.0605 2.49475 62.0955 1.7793 64.9112 1.7793C66.4482 1.7793 67.813 2.02129 69.0057 2.50527C70.2107 2.98925 71.1574 3.71522 71.846 4.68318C72.5346 5.64061 72.8788 6.85056 72.8788 8.31302V13.1107H66.4236V9.00743C66.4236 8.17625 66.3006 7.61862 66.0547 7.33454C65.8088 7.03995 65.4276 6.89265 64.9112 6.89265C64.3087 6.89265 63.9029 7.08203 63.6939 7.4608C63.4849 7.82904 63.3804 8.32354 63.3804 8.9443V22.8482C63.3804 23.6163 63.5095 24.1581 63.7677 24.4737C64.0382 24.7894 64.4194 24.9472 64.9112 24.9472C65.4645 24.9472 65.8518 24.7526 66.0731 24.3633C66.3068 23.974 66.4236 23.469 66.4236 22.8482V17.8453H72.9526V23.1007C72.9526 25.5416 72.2333 27.3145 70.7947 28.4192C69.3561 29.5134 67.3458 30.0605 64.7637 30.0605Z" fill="black"/>
<path d="M74.2437 29.808L77.3791 2.03181H88.3899L91.47 29.808H85.3283L84.8672 25.326H80.9572L80.5514 29.808H74.2437ZM81.4182 20.8912H84.3692L82.9491 6.76639H82.654L81.4182 20.8912Z" fill="black"/>
<path d="M93.4619 29.808V2.03181H103.421C105.081 2.03181 106.336 2.35797 107.184 3.01029C108.032 3.65209 108.598 4.55692 108.881 5.72478C109.176 6.88213 109.323 8.24463 109.323 9.81231C109.323 11.3274 109.096 12.5373 108.641 13.4422C108.198 14.347 107.356 14.973 106.114 15.3202C107.135 15.4991 107.848 15.9357 108.254 16.6301C108.672 17.314 108.881 18.203 108.881 19.2973V29.808H102.481V18.9343C102.481 18.1241 102.284 17.6244 101.891 17.435C101.509 17.2351 100.889 17.1351 100.028 17.1351V29.808H93.4619ZM100.065 12.3216H101.632C102.53 12.3216 102.979 11.4852 102.979 9.81231C102.979 8.72861 102.88 8.01843 102.684 7.68175C102.487 7.34506 102.118 7.17672 101.577 7.17672H100.065V12.3216Z" fill="black"/>
<path d="M119.172 30.0605C116.209 30.0605 114.07 29.4293 112.754 28.1667C111.451 26.9042 110.799 24.8946 110.799 22.138V19.4235H117.217V22.8955C117.217 23.5373 117.328 24.0424 117.549 24.4106C117.783 24.7683 118.183 24.9472 118.748 24.9472C119.338 24.9472 119.744 24.7999 119.965 24.5053C120.199 24.2107 120.316 23.7267 120.316 23.0534C120.316 22.2011 120.217 21.4909 120.021 20.9228C119.824 20.3441 119.48 19.797 118.988 19.2815C118.508 18.7554 117.838 18.1452 116.978 17.4508L114.063 15.0835C111.887 13.3264 110.799 11.3169 110.799 9.05477C110.799 6.68748 111.438 4.88308 112.717 3.64157C114.008 2.40005 115.871 1.7793 118.305 1.7793C121.281 1.7793 123.39 2.45792 124.632 3.81517C125.886 5.17242 126.513 7.23459 126.513 10.0017H119.91V8.09208C119.91 7.71331 119.781 7.41871 119.523 7.20829C119.277 6.99786 118.939 6.89265 118.508 6.89265C117.992 6.89265 117.611 7.0189 117.365 7.27141C117.131 7.5134 117.014 7.82904 117.014 8.21833C117.014 8.60762 117.137 9.02847 117.383 9.48089C117.629 9.9333 118.115 10.4541 118.84 11.0433L122.584 14.1208C123.334 14.731 124.023 15.3781 124.65 16.062C125.277 16.7353 125.781 17.5244 126.162 18.4293C126.544 19.3236 126.734 20.4178 126.734 21.7119C126.734 24.3212 126.169 26.3676 125.037 27.8511C123.919 29.3241 121.963 30.0605 119.172 30.0605Z" fill="black"/>
<path d="M5.48584 29.808L2 2.03181H8.34461L10.1336 19.5656L11.9596 2.03181H18.0091L19.7428 19.5656L21.4765 2.03181H27.8948L24.3537 29.808H16.5705L14.9474 16.4407L13.3982 29.808H5.48584Z" stroke="white" stroke-width="2" mask="url(#path-1-outside-1_604_2242)"/>
<path d="M29.5363 29.808V2.03181H35.8072V29.808H29.5363Z" stroke="white" stroke-width="2" mask="url(#path-1-outside-1_604_2242)"/>
<path d="M38.3893 29.808V2.03181H45.0659L48.0537 15.336V2.03181H54.3246V29.808H47.98L44.7339 15.9199V29.808H38.3893Z" stroke="white" stroke-width="2" mask="url(#path-1-outside-1_604_2242)"/>
<path d="M64.7637 30.0605C62.4152 30.0605 60.5216 29.4345 59.083 28.1825C57.6567 26.9305 56.9436 25.1787 56.9436 22.9271V10.1122C56.9436 7.41871 57.5645 5.35654 58.8064 3.92564C60.0605 2.49475 62.0955 1.7793 64.9112 1.7793C66.4482 1.7793 67.813 2.02129 69.0057 2.50527C70.2107 2.98925 71.1574 3.71522 71.846 4.68318C72.5346 5.64061 72.8788 6.85056 72.8788 8.31302V13.1107H66.4236V9.00743C66.4236 8.17625 66.3006 7.61862 66.0547 7.33454C65.8088 7.03995 65.4276 6.89265 64.9112 6.89265C64.3087 6.89265 63.9029 7.08203 63.6939 7.4608C63.4849 7.82904 63.3804 8.32354 63.3804 8.9443V22.8482C63.3804 23.6163 63.5095 24.1581 63.7677 24.4737C64.0382 24.7894 64.4194 24.9472 64.9112 24.9472C65.4645 24.9472 65.8518 24.7526 66.0731 24.3633C66.3068 23.974 66.4236 23.469 66.4236 22.8482V17.8453H72.9526V23.1007C72.9526 25.5416 72.2333 27.3145 70.7947 28.4192C69.3561 29.5134 67.3458 30.0605 64.7637 30.0605Z" stroke="white" stroke-width="2" mask="url(#path-1-outside-1_604_2242)"/>
<path d="M74.2437 29.808L77.3791 2.03181H88.3899L91.47 29.808H85.3283L84.8672 25.326H80.9572L80.5514 29.808H74.2437ZM81.4182 20.8912H84.3692L82.9491 6.76639H82.654L81.4182 20.8912Z" stroke="white" stroke-width="2" mask="url(#path-1-outside-1_604_2242)"/>
<path d="M93.4619 29.808V2.03181H103.421C105.081 2.03181 106.336 2.35797 107.184 3.01029C108.032 3.65209 108.598 4.55692 108.881 5.72478C109.176 6.88213 109.323 8.24463 109.323 9.81231C109.323 11.3274 109.096 12.5373 108.641 13.4422C108.198 14.347 107.356 14.973 106.114 15.3202C107.135 15.4991 107.848 15.9357 108.254 16.6301C108.672 17.314 108.881 18.203 108.881 19.2973V29.808H102.481V18.9343C102.481 18.1241 102.284 17.6244 101.891 17.435C101.509 17.2351 100.889 17.1351 100.028 17.1351V29.808H93.4619ZM100.065 12.3216H101.632C102.53 12.3216 102.979 11.4852 102.979 9.81231C102.979 8.72861 102.88 8.01843 102.684 7.68175C102.487 7.34506 102.118 7.17672 101.577 7.17672H100.065V12.3216Z" stroke="white" stroke-width="2" mask="url(#path-1-outside-1_604_2242)"/>
<path d="M119.172 30.0605C116.209 30.0605 114.07 29.4293 112.754 28.1667C111.451 26.9042 110.799 24.8946 110.799 22.138V19.4235H117.217V22.8955C117.217 23.5373 117.328 24.0424 117.549 24.4106C117.783 24.7683 118.183 24.9472 118.748 24.9472C119.338 24.9472 119.744 24.7999 119.965 24.5053C120.199 24.2107 120.316 23.7267 120.316 23.0534C120.316 22.2011 120.217 21.4909 120.021 20.9228C119.824 20.3441 119.48 19.797 118.988 19.2815C118.508 18.7554 117.838 18.1452 116.978 17.4508L114.063 15.0835C111.887 13.3264 110.799 11.3169 110.799 9.05477C110.799 6.68748 111.438 4.88308 112.717 3.64157C114.008 2.40005 115.871 1.7793 118.305 1.7793C121.281 1.7793 123.39 2.45792 124.632 3.81517C125.886 5.17242 126.513 7.23459 126.513 10.0017H119.91V8.09208C119.91 7.71331 119.781 7.41871 119.523 7.20829C119.277 6.99786 118.939 6.89265 118.508 6.89265C117.992 6.89265 117.611 7.0189 117.365 7.27141C117.131 7.5134 117.014 7.82904 117.014 8.21833C117.014 8.60762 117.137 9.02847 117.383 9.48089C117.629 9.9333 118.115 10.4541 118.84 11.0433L122.584 14.1208C123.334 14.731 124.023 15.3781 124.65 16.062C125.277 16.7353 125.781 17.5244 126.162 18.4293C126.544 19.3236 126.734 20.4178 126.734 21.7119C126.734 24.3212 126.169 26.3676 125.037 27.8511C123.919 29.3241 121.963 30.0605 119.172 30.0605Z" stroke="white" stroke-width="2" mask="url(#path-1-outside-1_604_2242)"/>
</svg>
