<svg width="128" height="31" viewBox="0 0 128 31" fill="none" xmlns="http://www.w3.org/2000/svg">
<mask id="path-1-outside-1_604_2240" maskUnits="userSpaceOnUse" x="0" y="0" width="128" height="31" fill="black">
<rect fill="white" width="128" height="31"/>
<path d="M5.48584 29.0287L2 1.25251H8.34461L10.1336 18.7863L11.9596 1.25251H18.0091L19.7428 18.7863L21.4765 1.25251H27.8948L24.3537 29.0287H16.5705L14.9474 15.6614L13.3982 29.0287H5.48584Z"/>
<path d="M29.5363 29.0287V1.25251H35.8072V29.0287H29.5363Z"/>
<path d="M38.3893 29.0287V1.25251H45.0659L48.0537 14.5567V1.25251H54.3246V29.0287H47.98L44.7339 15.1406V29.0287H38.3893Z"/>
<path d="M64.7637 29.2812C62.4152 29.2812 60.5216 28.6552 59.083 27.4032C57.6567 26.1512 56.9436 24.3994 56.9436 22.1478V9.33287C56.9436 6.63942 57.5645 4.57724 58.8064 3.14634C60.0605 1.71545 62.0955 1 64.9112 1C66.4482 1 67.813 1.24199 69.0057 1.72597C70.2107 2.20995 71.1574 2.93592 71.846 3.90388C72.5346 4.86132 72.8788 6.07127 72.8788 7.53373V12.3314H66.4236V8.22813C66.4236 7.39695 66.3006 6.83932 66.0547 6.55525C65.8088 6.26065 65.4276 6.11335 64.9112 6.11335C64.3087 6.11335 63.9029 6.30273 63.6939 6.6815C63.4849 7.04975 63.3804 7.54425 63.3804 8.165V22.0689C63.3804 22.837 63.5095 23.3788 63.7677 23.6944C64.0382 24.0101 64.4194 24.1679 64.9112 24.1679C65.4645 24.1679 65.8518 23.9733 66.0731 23.584C66.3068 23.1947 66.4236 22.6897 66.4236 22.0689V17.066H72.9526V22.3214C72.9526 24.7624 72.2333 26.5352 70.7947 27.6399C69.3561 28.7341 67.3458 29.2812 64.7637 29.2812Z"/>
<path d="M74.2437 29.0287L77.3791 1.25251H88.3899L91.47 29.0287H85.3283L84.8672 24.5467H80.9572L80.5514 29.0287H74.2437ZM81.4182 20.1119H84.3692L82.9491 5.9871H82.654L81.4182 20.1119Z"/>
<path d="M93.4619 29.0287V1.25251H103.421C105.081 1.25251 106.336 1.57867 107.184 2.23099C108.032 2.87279 108.598 3.77762 108.881 4.94549C109.176 6.10283 109.323 7.46534 109.323 9.03301C109.323 10.5481 109.096 11.758 108.641 12.6629C108.198 13.5677 107.356 14.1937 106.114 14.5409C107.135 14.7198 107.848 15.1564 108.254 15.8508C108.672 16.5347 108.881 17.4237 108.881 18.518V29.0287H102.481V18.155C102.481 17.3448 102.284 16.8451 101.891 16.6557C101.509 16.4558 100.889 16.3558 100.028 16.3558V29.0287H93.4619ZM100.065 11.5423H101.632C102.53 11.5423 102.979 10.7059 102.979 9.03301C102.979 7.94932 102.88 7.23913 102.684 6.90245C102.487 6.56577 102.118 6.39743 101.577 6.39743H100.065V11.5423Z"/>
<path d="M119.172 29.2812C116.209 29.2812 114.07 28.65 112.754 27.3874C111.451 26.1249 110.799 24.1153 110.799 21.3587V18.6442H117.217V22.1162C117.217 22.758 117.328 23.2631 117.549 23.6313C117.783 23.989 118.183 24.1679 118.748 24.1679C119.338 24.1679 119.744 24.0206 119.965 23.726C120.199 23.4314 120.316 22.9474 120.316 22.2741C120.316 21.4218 120.217 20.7117 120.021 20.1435C119.824 19.5648 119.48 19.0177 118.988 18.5022C118.508 17.9761 117.838 17.3659 116.978 16.6715L114.063 14.3042C111.887 12.5471 110.799 10.5376 110.799 8.27548C110.799 5.90819 111.438 4.10378 112.717 2.86227C114.008 1.62076 115.871 1 118.305 1C121.281 1 123.39 1.67862 124.632 3.03587C125.886 4.39312 126.513 6.45529 126.513 9.22239H119.91V7.31278C119.91 6.93401 119.781 6.63942 119.523 6.42899C119.277 6.21856 118.939 6.11335 118.508 6.11335C117.992 6.11335 117.611 6.23961 117.365 6.49212C117.131 6.73411 117.014 7.04975 117.014 7.43903C117.014 7.82832 117.137 8.24917 117.383 8.70159C117.629 9.15401 118.115 9.67481 118.84 10.264L122.584 13.3415C123.334 13.9517 124.023 14.5988 124.65 15.2827C125.277 15.956 125.781 16.7451 126.162 17.65C126.544 18.5443 126.734 19.6385 126.734 20.9326C126.734 23.5419 126.169 25.5883 125.037 27.0718C123.919 28.5448 121.963 29.2812 119.172 29.2812Z"/>
</mask>
<path d="M5.48584 29.0287L2 1.25251H8.34461L10.1336 18.7863L11.9596 1.25251H18.0091L19.7428 18.7863L21.4765 1.25251H27.8948L24.3537 29.0287H16.5705L14.9474 15.6614L13.3982 29.0287H5.48584Z" fill="white"/>
<path d="M29.5363 29.0287V1.25251H35.8072V29.0287H29.5363Z" fill="white"/>
<path d="M38.3893 29.0287V1.25251H45.0659L48.0537 14.5567V1.25251H54.3246V29.0287H47.98L44.7339 15.1406V29.0287H38.3893Z" fill="white"/>
<path d="M64.7637 29.2812C62.4152 29.2812 60.5216 28.6552 59.083 27.4032C57.6567 26.1512 56.9436 24.3994 56.9436 22.1478V9.33287C56.9436 6.63942 57.5645 4.57724 58.8064 3.14634C60.0605 1.71545 62.0955 1 64.9112 1C66.4482 1 67.813 1.24199 69.0057 1.72597C70.2107 2.20995 71.1574 2.93592 71.846 3.90388C72.5346 4.86132 72.8788 6.07127 72.8788 7.53373V12.3314H66.4236V8.22813C66.4236 7.39695 66.3006 6.83932 66.0547 6.55525C65.8088 6.26065 65.4276 6.11335 64.9112 6.11335C64.3087 6.11335 63.9029 6.30273 63.6939 6.6815C63.4849 7.04975 63.3804 7.54425 63.3804 8.165V22.0689C63.3804 22.837 63.5095 23.3788 63.7677 23.6944C64.0382 24.0101 64.4194 24.1679 64.9112 24.1679C65.4645 24.1679 65.8518 23.9733 66.0731 23.584C66.3068 23.1947 66.4236 22.6897 66.4236 22.0689V17.066H72.9526V22.3214C72.9526 24.7624 72.2333 26.5352 70.7947 27.6399C69.3561 28.7341 67.3458 29.2812 64.7637 29.2812Z" fill="white"/>
<path d="M74.2437 29.0287L77.3791 1.25251H88.3899L91.47 29.0287H85.3283L84.8672 24.5467H80.9572L80.5514 29.0287H74.2437ZM81.4182 20.1119H84.3692L82.9491 5.9871H82.654L81.4182 20.1119Z" fill="white"/>
<path d="M93.4619 29.0287V1.25251H103.421C105.081 1.25251 106.336 1.57867 107.184 2.23099C108.032 2.87279 108.598 3.77762 108.881 4.94549C109.176 6.10283 109.323 7.46534 109.323 9.03301C109.323 10.5481 109.096 11.758 108.641 12.6629C108.198 13.5677 107.356 14.1937 106.114 14.5409C107.135 14.7198 107.848 15.1564 108.254 15.8508C108.672 16.5347 108.881 17.4237 108.881 18.518V29.0287H102.481V18.155C102.481 17.3448 102.284 16.8451 101.891 16.6557C101.509 16.4558 100.889 16.3558 100.028 16.3558V29.0287H93.4619ZM100.065 11.5423H101.632C102.53 11.5423 102.979 10.7059 102.979 9.03301C102.979 7.94932 102.88 7.23913 102.684 6.90245C102.487 6.56577 102.118 6.39743 101.577 6.39743H100.065V11.5423Z" fill="white"/>
<path d="M119.172 29.2812C116.209 29.2812 114.07 28.65 112.754 27.3874C111.451 26.1249 110.799 24.1153 110.799 21.3587V18.6442H117.217V22.1162C117.217 22.758 117.328 23.2631 117.549 23.6313C117.783 23.989 118.183 24.1679 118.748 24.1679C119.338 24.1679 119.744 24.0206 119.965 23.726C120.199 23.4314 120.316 22.9474 120.316 22.2741C120.316 21.4218 120.217 20.7117 120.021 20.1435C119.824 19.5648 119.48 19.0177 118.988 18.5022C118.508 17.9761 117.838 17.3659 116.978 16.6715L114.063 14.3042C111.887 12.5471 110.799 10.5376 110.799 8.27548C110.799 5.90819 111.438 4.10378 112.717 2.86227C114.008 1.62076 115.871 1 118.305 1C121.281 1 123.39 1.67862 124.632 3.03587C125.886 4.39312 126.513 6.45529 126.513 9.22239H119.91V7.31278C119.91 6.93401 119.781 6.63942 119.523 6.42899C119.277 6.21856 118.939 6.11335 118.508 6.11335C117.992 6.11335 117.611 6.23961 117.365 6.49212C117.131 6.73411 117.014 7.04975 117.014 7.43903C117.014 7.82832 117.137 8.24917 117.383 8.70159C117.629 9.15401 118.115 9.67481 118.84 10.264L122.584 13.3415C123.334 13.9517 124.023 14.5988 124.65 15.2827C125.277 15.956 125.781 16.7451 126.162 17.65C126.544 18.5443 126.734 19.6385 126.734 20.9326C126.734 23.5419 126.169 25.5883 125.037 27.0718C123.919 28.5448 121.963 29.2812 119.172 29.2812Z" fill="white"/>
<path d="M5.48584 29.0287L2 1.25251H8.34461L10.1336 18.7863L11.9596 1.25251H18.0091L19.7428 18.7863L21.4765 1.25251H27.8948L24.3537 29.0287H16.5705L14.9474 15.6614L13.3982 29.0287H5.48584Z" stroke="black" stroke-width="2" mask="url(#path-1-outside-1_604_2240)"/>
<path d="M29.5363 29.0287V1.25251H35.8072V29.0287H29.5363Z" stroke="black" stroke-width="2" mask="url(#path-1-outside-1_604_2240)"/>
<path d="M38.3893 29.0287V1.25251H45.0659L48.0537 14.5567V1.25251H54.3246V29.0287H47.98L44.7339 15.1406V29.0287H38.3893Z" stroke="black" stroke-width="2" mask="url(#path-1-outside-1_604_2240)"/>
<path d="M64.7637 29.2812C62.4152 29.2812 60.5216 28.6552 59.083 27.4032C57.6567 26.1512 56.9436 24.3994 56.9436 22.1478V9.33287C56.9436 6.63942 57.5645 4.57724 58.8064 3.14634C60.0605 1.71545 62.0955 1 64.9112 1C66.4482 1 67.813 1.24199 69.0057 1.72597C70.2107 2.20995 71.1574 2.93592 71.846 3.90388C72.5346 4.86132 72.8788 6.07127 72.8788 7.53373V12.3314H66.4236V8.22813C66.4236 7.39695 66.3006 6.83932 66.0547 6.55525C65.8088 6.26065 65.4276 6.11335 64.9112 6.11335C64.3087 6.11335 63.9029 6.30273 63.6939 6.6815C63.4849 7.04975 63.3804 7.54425 63.3804 8.165V22.0689C63.3804 22.837 63.5095 23.3788 63.7677 23.6944C64.0382 24.0101 64.4194 24.1679 64.9112 24.1679C65.4645 24.1679 65.8518 23.9733 66.0731 23.584C66.3068 23.1947 66.4236 22.6897 66.4236 22.0689V17.066H72.9526V22.3214C72.9526 24.7624 72.2333 26.5352 70.7947 27.6399C69.3561 28.7341 67.3458 29.2812 64.7637 29.2812Z" stroke="black" stroke-width="2" mask="url(#path-1-outside-1_604_2240)"/>
<path d="M74.2437 29.0287L77.3791 1.25251H88.3899L91.47 29.0287H85.3283L84.8672 24.5467H80.9572L80.5514 29.0287H74.2437ZM81.4182 20.1119H84.3692L82.9491 5.9871H82.654L81.4182 20.1119Z" stroke="black" stroke-width="2" mask="url(#path-1-outside-1_604_2240)"/>
<path d="M93.4619 29.0287V1.25251H103.421C105.081 1.25251 106.336 1.57867 107.184 2.23099C108.032 2.87279 108.598 3.77762 108.881 4.94549C109.176 6.10283 109.323 7.46534 109.323 9.03301C109.323 10.5481 109.096 11.758 108.641 12.6629C108.198 13.5677 107.356 14.1937 106.114 14.5409C107.135 14.7198 107.848 15.1564 108.254 15.8508C108.672 16.5347 108.881 17.4237 108.881 18.518V29.0287H102.481V18.155C102.481 17.3448 102.284 16.8451 101.891 16.6557C101.509 16.4558 100.889 16.3558 100.028 16.3558V29.0287H93.4619ZM100.065 11.5423H101.632C102.53 11.5423 102.979 10.7059 102.979 9.03301C102.979 7.94932 102.88 7.23913 102.684 6.90245C102.487 6.56577 102.118 6.39743 101.577 6.39743H100.065V11.5423Z" stroke="black" stroke-width="2" mask="url(#path-1-outside-1_604_2240)"/>
<path d="M119.172 29.2812C116.209 29.2812 114.07 28.65 112.754 27.3874C111.451 26.1249 110.799 24.1153 110.799 21.3587V18.6442H117.217V22.1162C117.217 22.758 117.328 23.2631 117.549 23.6313C117.783 23.989 118.183 24.1679 118.748 24.1679C119.338 24.1679 119.744 24.0206 119.965 23.726C120.199 23.4314 120.316 22.9474 120.316 22.2741C120.316 21.4218 120.217 20.7117 120.021 20.1435C119.824 19.5648 119.48 19.0177 118.988 18.5022C118.508 17.9761 117.838 17.3659 116.978 16.6715L114.063 14.3042C111.887 12.5471 110.799 10.5376 110.799 8.27548C110.799 5.90819 111.438 4.10378 112.717 2.86227C114.008 1.62076 115.871 1 118.305 1C121.281 1 123.39 1.67862 124.632 3.03587C125.886 4.39312 126.513 6.45529 126.513 9.22239H119.91V7.31278C119.91 6.93401 119.781 6.63942 119.523 6.42899C119.277 6.21856 118.939 6.11335 118.508 6.11335C117.992 6.11335 117.611 6.23961 117.365 6.49212C117.131 6.73411 117.014 7.04975 117.014 7.43903C117.014 7.82832 117.137 8.24917 117.383 8.70159C117.629 9.15401 118.115 9.67481 118.84 10.264L122.584 13.3415C123.334 13.9517 124.023 14.5988 124.65 15.2827C125.277 15.956 125.781 16.7451 126.162 17.65C126.544 18.5443 126.734 19.6385 126.734 20.9326C126.734 23.5419 126.169 25.5883 125.037 27.0718C123.919 28.5448 121.963 29.2812 119.172 29.2812Z" stroke="black" stroke-width="2" mask="url(#path-1-outside-1_604_2240)"/>
</svg>
