<svg width="151" height="39" viewBox="0 0 151 39" fill="none" xmlns="http://www.w3.org/2000/svg">
	<g clip-path="url(#clip0_138_539)">
		<path d="M4.21987 38.6517L0 0.348145H7.68062L9.84636 24.5273L12.0568 0.348145H19.3802L21.4789 24.5273L23.5777 0.348145H31.3476L27.0607 38.6517H17.6386L15.6738 20.2181L13.7983 38.6517H4.21987Z" fill="#FDFDFD" />
		<path d="M33.3347 38.6517V0.348145H40.9261V38.6517H33.3347Z" fill="#FDFDFD" />
		<path d="M44.0519 38.6517V0.348145H52.1343L55.7514 18.6947V0.348145H63.3427V38.6517H55.6621L51.7325 19.4999V38.6517H44.0519Z" fill="#FDFDFD" />
		<path d="M75.98 39C73.137 39 70.8448 38.1367 69.1032 36.4101C67.3766 34.6836 66.5133 32.2679 66.5133 29.163V11.4911C66.5133 7.77679 67.2649 4.93304 68.7683 2.95983C70.2866 0.986611 72.75 0 76.1587 0C78.0193 0 79.6715 0.333705 81.1154 1.00111C82.5741 1.66853 83.7202 2.66964 84.5538 4.00447C85.3873 5.32478 85.8041 6.9933 85.8041 9.01006V15.6261H77.9895V9.9676C77.9895 8.82143 77.8407 8.05245 77.5429 7.66072C77.2453 7.25446 76.7839 7.05134 76.1587 7.05134C75.4293 7.05134 74.9381 7.3125 74.6851 7.83483C74.432 8.34263 74.3055 9.02451 74.3055 9.88056V29.0541C74.3055 30.1133 74.4619 30.8605 74.7744 31.2957C75.1019 31.731 75.5633 31.9486 76.1587 31.9486C76.8285 31.9486 77.2974 31.6802 77.5653 31.1434C77.8481 30.6066 77.9895 29.9102 77.9895 29.0541V22.1551H85.8934V29.4024C85.8934 32.7684 85.0227 35.2132 83.2811 36.7366C81.5396 38.2455 79.1059 39 75.98 39Z" fill="#FDFDFD" />
		<path d="M87.4563 38.6517L91.2518 0.348145H104.582L108.31 38.6517H100.875L100.317 32.4709H95.5837L95.0918 38.6517H87.4563ZM96.1419 26.3554H99.7137L97.9946 6.87716H97.6373L96.1419 26.3554Z" fill="#FDFDFD" />
		<path d="M110.722 38.6517V0.348145H122.778C124.787 0.348145 126.306 0.797922 127.333 1.69748C128.36 2.58252 129.045 3.83029 129.387 5.44078C129.745 7.03676 129.923 8.91568 129.923 11.0775C129.923 13.1668 129.647 14.8354 129.097 16.0831C128.561 17.3308 127.542 18.1941 126.038 18.673C127.274 18.9195 128.136 19.5217 128.628 20.4793C129.134 21.4224 129.387 22.6484 129.387 24.1573V38.6517H121.639V23.6567C121.639 22.5395 121.401 21.8504 120.925 21.5892C120.464 21.3135 119.712 21.1757 118.67 21.1757V38.6517H110.722ZM118.715 14.5379H120.613C121.699 14.5379 122.243 13.3844 122.243 11.0775C122.243 9.58312 122.124 8.60373 121.885 8.13944C121.647 7.67516 121.2 7.44301 120.545 7.44301H118.715V14.5379Z" fill="#FDFDFD" />
		<path d="M141.845 39C138.258 39 135.668 38.1295 134.075 36.3884C132.498 34.6473 131.709 31.8761 131.709 28.0748V24.3315H139.479V29.1194C139.479 30.0045 139.613 30.7009 139.881 31.2087C140.164 31.702 140.647 31.9486 141.332 31.9486C142.046 31.9486 142.538 31.7456 142.805 31.3392C143.089 30.933 143.23 30.2656 143.23 29.337C143.23 28.1618 143.111 27.1825 142.873 26.399C142.635 25.601 142.218 24.8465 141.623 24.1356C141.042 23.4102 140.231 22.5687 139.189 21.6111L135.661 18.3466C133.026 15.9235 131.709 13.1523 131.709 10.0329C131.709 6.76841 132.483 4.28013 134.031 2.56808C135.595 0.856027 137.849 0 140.796 0C144.398 0 146.951 0.935823 148.455 2.80748C149.973 4.67913 150.732 7.52288 150.732 11.3387H142.739V8.70536C142.739 8.18303 142.583 7.77679 142.27 7.48661C141.973 7.19643 141.563 7.05134 141.042 7.05134C140.417 7.05134 139.955 7.22545 139.657 7.57366C139.375 7.90737 139.234 8.34263 139.234 8.8795C139.234 9.41628 139.383 9.99667 139.68 10.6205C139.977 11.2444 140.565 11.9626 141.444 12.7751L145.976 17.019C146.885 17.8605 147.718 18.7528 148.477 19.6959C149.236 20.6244 149.846 21.7126 150.308 22.9604C150.769 24.1936 151 25.7026 151 27.4872C151 31.0854 150.315 33.9074 148.945 35.9531C147.591 37.9844 145.225 39 141.845 39Z" fill="#FDFDFD" />
	</g>
</svg>
