<svg width="19" height="19" viewBox="0 0 19 19" fill="none" xmlns="http://www.w3.org/2000/svg">
<path d="M10.7866 2.1235L17.06 6.20118C17.2817 6.34527 17.3925 6.41731 17.4728 6.51341C17.5439 6.59847 17.5973 6.69687 17.6299 6.80283C17.6667 6.92253 17.6667 7.05472 17.6667 7.3191V13.4289C17.6667 14.829 17.6667 15.5291 17.3942 16.0638C17.1545 16.5342 16.772 16.9167 16.3016 17.1564C15.7669 17.4289 15.0668 17.4289 13.6667 17.4289H5C3.59987 17.4289 2.8998 17.4289 2.36502 17.1564C1.89462 16.9167 1.51217 16.5342 1.27248 16.0638C1 15.5291 1 14.829 1 13.4289V7.3191C1 7.05472 1 6.92253 1.03681 6.80283C1.06939 6.69687 1.12279 6.59847 1.19387 6.51341C1.27418 6.41731 1.38501 6.34527 1.60668 6.20118L7.88003 2.1235M10.7866 2.1235C10.2606 1.78158 9.99758 1.61062 9.71419 1.5441C9.46369 1.4853 9.20298 1.4853 8.95248 1.5441C8.66909 1.61062 8.40607 1.78158 7.88003 2.1235M10.7866 2.1235L15.9468 5.4776C16.52 5.85018 16.8066 6.03648 16.9059 6.27272C16.9926 6.47918 16.9926 6.71187 16.9059 6.91833C16.8066 7.15457 16.52 7.34086 15.9468 7.71345L10.7866 11.0675C10.2606 11.4095 9.99758 11.5804 9.71419 11.6469C9.46369 11.7057 9.20298 11.7057 8.95248 11.6469C8.66909 11.5804 8.40607 11.4095 7.88003 11.0675L2.71988 7.71345C2.14668 7.34086 1.86007 7.15457 1.76081 6.91833C1.67406 6.71187 1.67406 6.47918 1.76081 6.27272C1.86007 6.03648 2.14668 5.85018 2.71988 5.4776L7.88003 2.1235M17.25 15.7622L11.7143 10.7622M6.95235 10.7622L1.41667 15.7622" stroke="#FDFDFD" stroke-width="2" stroke-linecap="round" stroke-linejoin="round"/>
</svg>
