<svg width="30" height="16" viewBox="0 0 30 16" fill="none" xmlns="http://www.w3.org/2000/svg">
<g clip-path="url(#clip0_151_680)">
<path d="M30 7L31 7L31 9L30 9L30 7ZM1.29289 8.70711C0.90237 8.31659 0.90237 7.68342 1.29289 7.2929L7.65685 0.928934C8.04738 0.53841 8.68054 0.53841 9.07107 0.928934C9.46159 1.31946 9.46159 1.95262 9.07107 2.34315L3.41422 8L9.07107 13.6569C9.46159 14.0474 9.46159 14.6805 9.07107 15.0711C8.68054 15.4616 8.04738 15.4616 7.65686 15.0711L1.29289 8.70711ZM30 9L2 9L2 7L30 7L30 9Z" fill="#FCB001"/>
</g>
<defs>
<clipPath id="clip0_151_680">
<rect width="30" height="16" fill="white"/>
</clipPath>
</defs>
</svg>
