<svg width="18" height="18" viewBox="0 0 18 18" fill="none" xmlns="http://www.w3.org/2000/svg">
<path d="M5.54216 6.24449C6.12216 7.45251 6.91281 8.58471 7.91413 9.58603C8.91544 10.5873 10.0476 11.378 11.2557 11.958C11.3596 12.0079 11.4115 12.0328 11.4773 12.052C11.7109 12.1201 11.9978 12.0712 12.1956 11.9295C12.2513 11.8896 12.2989 11.842 12.3942 11.7467C12.6855 11.4554 12.8312 11.3097 12.9777 11.2145C13.5301 10.8553 14.2422 10.8553 14.7947 11.2145C14.9411 11.3097 15.0868 11.4554 15.3781 11.7467L15.5405 11.9091C15.9834 12.352 16.2048 12.5734 16.3251 12.8113C16.5644 13.2842 16.5644 13.8428 16.3251 14.3157C16.2048 14.5536 15.9834 14.775 15.5405 15.2179L15.4092 15.3492C14.9678 15.7906 14.7471 16.0113 14.4471 16.1798C14.1142 16.3668 13.5971 16.5013 13.2153 16.5001C12.8711 16.4991 12.636 16.4324 12.1656 16.2989C9.63776 15.5814 7.25246 14.2277 5.26248 12.2377C3.27249 10.2477 1.91877 7.86239 1.20129 5.33456C1.06778 4.86419 1.00103 4.629 1.00001 4.28488C0.998871 3.90303 1.13334 3.38595 1.32036 3.05303C1.4889 2.75301 1.70957 2.53233 2.15092 2.09098L2.28229 1.95961C2.72516 1.51675 2.94659 1.29531 3.18441 1.17502C3.65738 0.935799 4.21593 0.935799 4.6889 1.17502C4.92671 1.29531 5.14815 1.51675 5.59102 1.95961L5.75341 2.12201C6.04475 2.41334 6.19042 2.55901 6.28565 2.70549C6.64482 3.2579 6.64482 3.97005 6.28565 4.52246C6.19042 4.66894 6.04475 4.81461 5.75341 5.10595C5.65815 5.20121 5.61052 5.24884 5.57065 5.30452C5.42897 5.50238 5.38006 5.78926 5.44816 6.02289C5.46732 6.08863 5.49227 6.14058 5.54216 6.24449Z" stroke="#FDFDFD" stroke-width="2" stroke-linecap="round" stroke-linejoin="round"/>
</svg>
