<svg width="32" height="32" viewBox="0 0 32 32" fill="none" xmlns="http://www.w3.org/2000/svg">
	<path d="M26.7004 9.91314V13.2472C26.7004 13.2472 25.1208 13.1853 23.951 12.8879C22.3183 12.4718 21.2683 11.8337 21.2683 11.8337C21.2683 11.8337 20.5439 11.3787 20.4853 11.3464V20.1364C20.4853 20.6258 20.3513 21.8484 19.9427 22.8672C19.4093 24.2012 18.5862 25.0764 18.4348 25.2553C18.4348 25.2553 17.4332 26.4384 15.6675 27.2352C14.076 27.9539 12.6783 27.9357 12.2599 27.9539C12.2599 27.9539 9.84424 28.0496 7.66946 26.6366L7.65861 26.6288C7.429 26.4064 7.21287 26.1717 7.01128 25.9257C6.31728 25.0795 5.89188 24.0789 5.78498 23.7934C5.7848 23.7922 5.7848 23.791 5.78498 23.7898C5.61298 23.2937 5.2516 22.1022 5.30098 20.9482C5.38834 18.9122 6.10458 17.6625 6.29395 17.3494C6.79549 16.4957 7.44779 15.7318 8.22184 15.0919C8.90489 14.5396 9.67911 14.1002 10.5127 13.7917C11.4139 13.4295 12.3789 13.2353 13.356 13.2197V16.5948C13.356 16.5948 11.5686 16.028 10.1383 17.0317C9.13831 17.7743 8.60763 18.4987 8.45136 19.7926C8.44485 20.7449 8.68848 22.0923 10.0249 22.991C10.1808 23.0898 10.3339 23.1775 10.484 23.2541C10.7175 23.5576 11.0016 23.8221 11.325 24.0368C12.6305 24.8632 13.7244 24.9209 15.1233 24.3842C16.056 24.0254 16.7582 23.2167 17.0837 22.3206C17.2883 21.7611 17.2856 21.1978 17.2856 20.6154V4.04639H20.5412C20.6758 4.81139 21.048 5.90039 22.0323 6.97898C22.4272 7.38624 22.8719 7.7463 23.3568 8.05134C23.5001 8.19955 24.2326 8.93231 25.1729 9.38216C25.6592 9.61469 26.1717 9.79285 26.7004 9.91314V9.91314Z" fill="white" />
	<path d="M20.5438 4.04635H17.2881V20.6159C17.2881 21.1983 17.2881 21.76 17.0863 22.3211C16.7575 23.2167 16.058 24.0253 15.1258 24.3842C13.7265 24.923 12.6326 24.8632 11.3276 24.0368C11.0036 23.823 10.7187 23.5594 10.4844 23.2567C11.5962 23.8251 12.5913 23.8152 13.8241 23.341C14.7558 22.9821 15.4563 22.1734 15.784 21.2774C15.9891 20.7178 15.9864 20.1546 15.9864 19.5726V3H20.4819C20.4819 3 20.4315 3.41188 20.5438 4.04635ZM26.7002 8.99104V9.9131C26.1725 9.79263 25.6609 9.61447 25.1755 9.38213C24.2352 8.93228 23.5026 8.19952 23.3594 8.0513C23.5256 8.1559 23.6981 8.25106 23.8759 8.33629C25.0192 8.88339 26.1451 9.04669 26.7002 8.99104Z" fill="white" />
</svg>
