<svg width="33" height="35" viewBox="0 0 33 35" fill="none" xmlns="http://www.w3.org/2000/svg">
	<g clip-path="url(#clip0_246_875)">
		<path d="M29.275 3.40502C28.4103 2.60459 24.916 0.0597521 17.1327 0.0251784C17.1327 0.0251784 7.95413 -0.530096 3.47974 3.58732C0.989035 6.08658 0.11285 9.74353 0.0204275 14.2774C-0.0719949 18.8113 -0.191571 27.308 7.9724 29.6119H7.98024L7.97501 33.1274C7.97501 33.1274 7.9228 34.5507 8.85694 34.8409C9.9869 35.1929 10.65 34.1112 11.7288 32.9451C12.321 32.305 13.1387 31.3647 13.7548 30.6459C19.3383 31.1174 23.6325 30.0399 24.1202 29.8806C25.2476 29.5139 31.6268 28.6941 32.6643 20.1979C33.7353 11.4408 32.1463 5.90166 29.275 3.40502ZM30.2211 19.5698C29.3455 26.6637 24.1714 27.1095 23.2174 27.4164C22.8117 27.5474 19.0401 28.4888 14.2973 28.1781C14.2973 28.1781 10.7634 32.4553 9.6595 33.5674C9.48719 33.7413 9.28459 33.8115 9.14935 33.777C8.95929 33.7303 8.90707 33.5046 8.90916 33.1745C8.91229 32.7031 8.93944 27.3326 8.93944 27.3326C2.03335 25.4091 2.43594 18.1774 2.51426 14.3905C2.59259 10.6037 3.30168 7.50148 5.40808 5.41501C9.19269 1.97597 16.9891 2.48986 16.9891 2.48986C23.573 2.51868 26.7279 4.50771 27.4594 5.17404C29.8885 7.26051 31.126 12.2533 30.2211 19.5677V19.5698Z" fill="#FDFDFD" />
		<path d="M20.3367 14.0793C20.2511 12.3475 19.3742 11.4379 17.7061 11.3506" stroke="#FDFDFD" stroke-linecap="round" stroke-linejoin="round" />
		<path d="M22.5949 14.8389C22.6297 13.2254 22.1533 11.8774 21.1658 10.7948C20.1737 9.70833 18.8004 9.1101 17.0381 8.98071" stroke="#FDFDFD" stroke-linecap="round" stroke-linejoin="round" />
		<path d="M24.9071 15.7462C24.8859 12.9464 24.052 10.7414 22.4054 9.13105C20.7589 7.52076 18.7111 6.70705 16.2622 6.68994" stroke="#FDFDFD" stroke-linecap="round" stroke-linejoin="round" />
		<path d="M17.7932 19.9942C17.7932 19.9942 18.412 20.0466 18.7451 19.6348L19.3947 18.815C19.708 18.4085 20.464 18.1492 21.2045 18.5631C21.7593 18.8805 22.298 19.2256 22.8185 19.5971C23.3098 19.9596 24.316 20.802 24.3191 20.802C24.7985 21.2079 24.9092 21.8041 24.5828 22.4327C24.5828 22.4364 24.5802 22.4426 24.5802 22.4458C24.2208 23.0709 23.7645 23.6346 23.2284 24.1158C23.2221 24.1189 23.2221 24.1221 23.2163 24.1252C22.7506 24.5157 22.293 24.7376 21.8436 24.791C21.7774 24.8027 21.7102 24.8069 21.6431 24.8036C21.4449 24.8055 21.2477 24.7751 21.0593 24.7135L21.0447 24.692C20.3523 24.4961 19.1962 24.0058 17.271 22.9403C16.1569 22.331 15.0963 21.6281 14.1005 20.8392C13.6013 20.444 13.1252 20.0203 12.6745 19.5704L12.6264 19.5222L12.5784 19.474L12.5303 19.4253C12.5142 19.4096 12.4985 19.3933 12.4823 19.3771C12.0338 18.9249 11.6116 18.4472 11.2176 17.9465C10.4314 16.9475 9.73073 15.8837 9.12324 14.7662C8.06117 12.8343 7.57243 11.6756 7.37714 10.9799L7.35573 10.9652C7.29452 10.7761 7.26436 10.5783 7.26644 10.3796C7.26279 10.3123 7.26682 10.2448 7.27845 10.1784C7.3345 9.7286 7.55607 9.26936 7.94316 8.8007C7.94629 8.79494 7.94943 8.79494 7.95256 8.78865C8.43206 8.25083 8.994 7.79317 9.61721 7.43294C9.62034 7.43294 9.62661 7.4298 9.63026 7.4298C10.2569 7.1024 10.8511 7.21345 11.2552 7.69172C11.2584 7.69486 12.0964 8.70431 12.4562 9.19725C12.8265 9.71991 13.1705 10.2608 13.4869 10.818C13.8994 11.5603 13.641 12.3204 13.2358 12.6337L12.4186 13.2853C12.0061 13.6195 12.0604 14.2403 12.0604 14.2403C12.0604 14.2403 13.2708 18.836 17.7932 19.9942Z" fill="#FDFDFD" />
	</g>
</svg>
