<svg width="849" height="57" viewBox="0 0 849 57" fill="none" xmlns="http://www.w3.org/2000/svg">
<path d="M838.872 55.8303H848.179L829.012 55.8579H303.127H9.73258C9.73258 55.8579 12.0651 55.7097 13.5259 55.4072C16.2306 54.8472 17.7265 54.2415 20.1359 52.8909C21.5269 52.1112 22.2855 51.6142 23.516 50.5999C24.9246 49.4388 25.6439 48.6834 26.7835 47.2573C28.1811 45.5084 28.8565 44.4107 29.788 42.3749C30.5677 40.6711 30.9361 39.663 31.3278 37.8305C31.6397 36.3717 31.6958 35.5268 31.7785 34.0373C31.8518 32.7193 31.8702 31.557 31.9632 30.2403C32.0804 28.5806 32.1014 27.649 32.4545 26.0231C32.945 23.7648 33.2727 22.4922 34.1446 20.352C35.053 18.122 35.7071 17.3417 37.0365 15.3339C38.3264 13.3858 39.1994 12.3862 40.7922 10.6769C42.1571 9.21194 42.9124 8.3531 44.5103 7.14651C46.3294 5.77288 47.5384 5.26754 49.5805 4.25462C50.8919 3.60411 51.6333 3.24406 52.9981 2.71479C54.5204 2.12448 55.3859 1.79453 56.9792 1.43785C58.7808 1.03452 59.8292 0.957876 61.6738 0.880118C62.6954 0.837053 63.2696 0.880118 64.2921 0.880118H72.0088H84.4296H771.888H780.832C782.532 0.880118 783.485 0.823421 785.183 0.880118C786.842 0.935476 787.779 0.930883 789.422 1.16012C791.705 1.47858 792.978 1.80526 795.155 2.56089C796.828 3.14139 797.741 3.5522 799.32 4.35359C801.055 5.23445 802.016 5.77599 803.596 6.91218C805.279 8.12259 806.156 8.90849 807.611 10.3856C809.086 11.883 809.857 12.793 811.066 14.5125C812.33 16.3116 812.96 17.392 813.886 19.3865C814.663 21.0611 815.023 22.0421 815.548 23.8124C816.013 25.3832 816.223 26.2843 816.481 27.9019C816.824 30.0461 816.705 31.2833 816.873 33.4482C816.97 34.6957 816.942 35.4052 817.135 36.6416C817.505 39.0214 817.911 40.3593 818.928 42.5426C819.712 44.2273 820.274 45.1292 821.393 46.6134C822.375 47.9164 822.998 48.6027 824.194 49.7134C825.109 50.5639 825.657 51.009 826.677 51.7301C827.555 52.3503 828.068 52.6734 829.012 53.1866C830.475 53.9823 831.344 54.3654 832.933 54.8671C834.35 55.3147 836.649 55.6887 836.649 55.6887L838.872 55.8303Z" fill="#252525"/>
<path d="M848.179 55.8303H838.872L836.649 55.6887C836.649 55.6887 834.35 55.3147 832.933 54.8671C831.344 54.3654 830.475 53.9823 829.012 53.1866C828.068 52.6734 827.555 52.3503 826.677 51.7301C825.657 51.009 825.109 50.5639 824.194 49.7134C822.998 48.6027 822.375 47.9164 821.393 46.6134C820.274 45.1292 819.712 44.2273 818.928 42.5426C817.911 40.3593 817.505 39.0214 817.135 36.6416C816.942 35.4052 816.97 34.6957 816.873 33.4482C816.705 31.2833 816.824 30.0461 816.481 27.9019C816.223 26.2843 816.013 25.3832 815.548 23.8124C815.023 22.0421 814.663 21.0611 813.886 19.3865C812.96 17.392 812.33 16.3116 811.066 14.5125C809.857 12.793 809.086 11.883 807.611 10.3856C806.156 8.90849 805.279 8.12259 803.596 6.91218C802.016 5.77599 801.055 5.23445 799.32 4.35359C797.741 3.5522 796.828 3.14139 795.155 2.56089C792.978 1.80526 791.705 1.47858 789.422 1.16012C787.779 0.930883 786.842 0.935476 785.183 0.880118C783.485 0.823421 782.532 0.880118 780.832 0.880118C777.339 0.880118 771.888 0.880118 771.888 0.880118H84.4296C84.4296 0.880118 76.8594 0.880118 72.0088 0.880118C68.9952 0.880118 67.3056 0.880118 64.2921 0.880118C63.2696 0.880118 62.6954 0.837053 61.6738 0.880118C59.8292 0.957876 58.7808 1.03452 56.9792 1.43785C55.3859 1.79453 54.5204 2.12448 52.9981 2.71479C51.6333 3.24406 50.8919 3.60411 49.5805 4.25462C47.5384 5.26754 46.3294 5.77288 44.5103 7.14651C42.9124 8.3531 42.1571 9.21194 40.7922 10.6769C39.1994 12.3862 38.3264 13.3858 37.0365 15.3339C35.7071 17.3417 35.053 18.122 34.1446 20.352C33.2727 22.4922 32.945 23.7648 32.4545 26.0231C32.1014 27.649 32.0804 28.5806 31.9632 30.2403C31.8702 31.557 31.8518 32.7193 31.7785 34.0373C31.6958 35.5268 31.6397 36.3717 31.3278 37.8305C30.9361 39.663 30.5677 40.6711 29.788 42.3749C28.8565 44.4107 28.1811 45.5084 26.7835 47.2573C25.6439 48.6834 24.9246 49.4388 23.516 50.5999C22.2855 51.6142 21.5269 52.1112 20.1359 52.8909C17.7265 54.2415 16.2306 54.8472 13.5259 55.4072C12.0651 55.7097 9.73258 55.8579 9.73258 55.8579H3.23523H0.418457H303.127H829.012L848.179 55.8303Z" stroke="#252525"/>
</svg>
