<svg width="232" height="30" viewBox="0 0 232 30" fill="none" xmlns="http://www.w3.org/2000/svg">
<path d="M225.518 29.2232C226.254 29.3476 227.425 29.3672 227.425 29.3672L4.70539 29.3703C4.75449 29.3676 6.48357 29.2711 7.55353 28.9886C8.5107 28.7359 9.03609 28.5248 9.91856 28.0762C10.7934 27.6314 11.2683 27.3329 12.0322 26.7167C12.6827 26.192 13.0248 25.8616 13.5685 25.2269C14.1513 24.5467 14.4337 24.122 14.8814 23.3461C15.3326 22.5641 15.5632 22.1041 15.8591 21.2511C16.1301 20.4695 16.2409 20.0117 16.3619 19.1933C16.4653 18.4939 16.4543 18.0934 16.4839 17.387C16.5327 16.2247 16.4839 15.5715 16.4839 14.4082C16.4839 13.8468 16.4634 13.5317 16.4839 12.9707C16.505 12.3944 16.5126 12.0691 16.5933 11.4981C16.6719 10.9411 16.74 10.631 16.8863 10.0879C17.0416 9.51124 17.1481 9.1913 17.3745 8.63869C17.5877 8.11846 17.7259 7.83292 17.9995 7.34181C18.3447 6.72238 18.565 6.38654 18.9995 5.82619C19.3598 5.36158 19.58 5.11316 19.9956 4.69728C20.3469 4.34583 20.5546 4.15818 20.9409 3.84572C21.4434 3.43932 21.7433 3.23075 22.2964 2.8965C22.8885 2.53869 23.2366 2.35931 23.8745 2.09181C24.4747 1.84018 24.8228 1.72046 25.4527 1.55666C26.0935 1.38998 26.4623 1.32265 27.1206 1.25197C27.7263 1.18694 28.6794 1.19093 28.6794 1.19093H36.6561H196.814H200.971C202.196 1.19093 202.888 1.08543 204.109 1.19093L204.114 1.19135C205.164 1.28208 205.766 1.3341 206.781 1.62349C207.666 1.87581 208.152 2.0742 208.969 2.497C209.734 2.8926 210.147 3.1565 210.827 3.68436C211.453 4.17012 211.782 4.47591 212.32 5.05825C212.964 5.75694 213.297 6.18613 213.787 7.00043C214.234 7.74286 214.445 8.18938 214.746 9.00217C215.061 9.85352 215.19 10.3543 215.339 11.2497C215.42 11.7332 215.449 12.0076 215.483 12.4966C215.535 13.2402 215.483 13.6599 215.483 14.4053C215.483 15.2962 215.469 15.7959 215.483 16.6867C215.496 17.4521 215.459 17.8851 215.543 18.646C215.618 19.3255 215.684 19.7067 215.857 20.3681C216.062 21.1547 216.225 21.5868 216.561 22.3273C216.759 22.7645 216.882 23.0051 217.121 23.4214C217.453 24.0016 217.657 24.3211 218.071 24.8466C218.62 25.5441 218.984 25.8956 219.657 26.4753C220.102 26.8594 220.362 27.0674 220.853 27.3914C221.435 27.7759 221.787 27.9571 222.422 28.2479C223.034 28.5282 223.39 28.661 224.033 28.8585C224.604 29.0337 224.929 29.1237 225.518 29.2232Z" fill="#252525"/>
<path d="M231.575 29.3672H227.425C227.425 29.3672 226.254 29.3476 225.518 29.2232C224.929 29.1237 224.604 29.0337 224.033 28.8585C223.39 28.661 223.034 28.5282 222.422 28.2479C221.787 27.9571 221.435 27.7759 220.853 27.3914C220.362 27.0674 220.102 26.8594 219.657 26.4753C218.984 25.8956 218.62 25.5441 218.071 24.8466C217.657 24.3211 217.453 24.0016 217.121 23.4214C216.882 23.0051 216.759 22.7645 216.561 22.3273C216.225 21.5868 216.062 21.1547 215.857 20.3681C215.684 19.7067 215.618 19.3255 215.543 18.646C215.459 17.8851 215.496 17.4521 215.483 16.6867C215.469 15.7959 215.483 15.2962 215.483 14.4053C215.483 13.6599 215.535 13.2402 215.483 12.4966C215.449 12.0076 215.42 11.7332 215.339 11.2497C215.19 10.3543 215.061 9.85352 214.746 9.00217C214.445 8.18938 214.234 7.74286 213.787 7.00043C213.297 6.18613 212.964 5.75694 212.32 5.05825C211.782 4.47591 211.453 4.17012 210.827 3.68436C210.147 3.1565 209.734 2.8926 208.969 2.497C208.152 2.0742 207.666 1.87581 206.781 1.62349C205.764 1.33365 205.162 1.28192 204.109 1.19093C202.888 1.08543 202.196 1.19093 200.971 1.19093C199.348 1.19093 196.814 1.19093 196.814 1.19093H36.6561H28.6794C28.6794 1.19093 27.7263 1.18694 27.1206 1.25197C26.4623 1.32265 26.0935 1.38998 25.4527 1.55666C24.8228 1.72046 24.4747 1.84018 23.8745 2.09181C23.2366 2.35931 22.8885 2.53869 22.2964 2.8965C21.7433 3.23075 21.4434 3.43932 20.9409 3.84572C20.5546 4.15818 20.3469 4.34583 19.9956 4.69728C19.58 5.11316 19.3598 5.36158 18.9995 5.82619C18.565 6.38654 18.3447 6.72238 17.9995 7.34181C17.7259 7.83292 17.5877 8.11846 17.3745 8.63869C17.1481 9.1913 17.0416 9.51124 16.8863 10.0879C16.74 10.631 16.6719 10.9411 16.5933 11.4981C16.5126 12.0691 16.505 12.3944 16.4839 12.9707C16.4634 13.5317 16.4839 13.8468 16.4839 14.4082C16.4839 15.5715 16.5327 16.2247 16.4839 17.387C16.4543 18.0934 16.4653 18.4939 16.3619 19.1933C16.2409 20.0117 16.1301 20.4695 15.8591 21.2511C15.5632 22.1041 15.3326 22.5641 14.8814 23.3461C14.4337 24.122 14.1513 24.5467 13.5685 25.2269C13.0248 25.8616 12.6827 26.192 12.0322 26.7167C11.2683 27.3329 10.7934 27.6314 9.91856 28.0762C9.03609 28.5248 8.5107 28.7359 7.55353 28.9886C6.46809 29.2752 4.70432 29.3704 4.70432 29.3704H0.542236L231.575 29.3672Z" stroke="#252525"/>
</svg>
