<svg width="84" height="84" viewBox="0 0 84 84" fill="none" xmlns="http://www.w3.org/2000/svg">
<rect y="0.738281" width="83.525" height="82.5508" rx="18.4615" fill="#01CFFC"/>
<path fill-rule="evenodd" clip-rule="evenodd" d="M62.1867 23.1313C61.8543 23.2252 23.3276 37.8405 21.1247 38.7084C19.9327 39.178 19.1431 39.8024 19.0161 40.3758C18.9086 40.8614 19.3474 41.4204 20.0941 41.7495C20.4958 41.9267 30.7988 45.1199 31.0083 45.1322C31.0825 45.1366 36.5207 41.7973 43.0933 37.7116C49.6659 33.6258 55.2457 30.1705 55.4927 30.0332C56.2395 29.6181 57.0908 29.7244 56.9345 30.2131C56.9039 30.3088 52.4125 34.3661 46.9536 39.2292C41.3717 44.2021 37.0281 48.1362 37.0277 48.2195C37.0274 48.301 36.8656 50.6122 36.6683 53.3558C36.471 56.0993 36.3095 58.4135 36.3095 58.4984C36.3095 58.6264 36.3674 58.6444 36.6465 58.6031C37.3889 58.4933 37.7042 58.2579 39.9151 56.1626C41.1195 55.021 42.4142 53.788 42.7923 53.4224L43.4796 52.7578L48.8572 56.669C54.5447 60.8057 54.819 60.9768 55.7623 60.9777C56.517 60.9784 57.1574 60.5005 57.5487 59.6448C57.8864 58.9064 64.9067 26.2164 64.91 25.3675C64.9133 24.4871 64.7557 24.015 64.3112 23.574C63.76 23.0272 63.0668 22.8827 62.1867 23.1313Z" fill="#FDFDFD"/>
</svg>
