<svg width="85" height="84" viewBox="0 0 85 84" fill="none" xmlns="http://www.w3.org/2000/svg">
<rect x="0.5" y="0.738281" width="83.525" height="82.5508" rx="18.4615" fill="#7360F2"/>
<g clip-path="url(#clip0_343_3165)">
<path d="M63.7573 18.4491C62.3024 17.1066 56.423 12.8385 43.327 12.7805C43.327 12.7805 27.8834 11.8493 20.3549 18.7548C16.1641 22.9465 14.6899 29.0798 14.5344 36.6839C14.3789 44.2879 14.1777 58.5384 27.9142 62.4024H27.9273L27.9186 68.2985C27.9186 68.2985 27.8307 70.6856 29.4025 71.1723C31.3037 71.7627 32.4195 69.9484 34.2346 67.9927C35.2309 66.9191 36.6068 65.3421 37.6435 64.1367C47.0381 64.9274 54.2635 63.1202 55.084 62.8531C56.9809 62.2381 67.7144 60.8631 69.4601 46.6135C71.2621 31.9264 68.5886 22.6364 63.7573 18.4491ZM65.3493 45.5601C63.8759 57.4578 55.1701 58.2054 53.565 58.7203C52.8823 58.9399 46.5364 60.5187 38.5563 59.9977C38.5563 59.9977 32.6101 67.1713 30.7528 69.0365C30.4629 69.3282 30.122 69.4459 29.8945 69.3879C29.5747 69.3097 29.4868 68.931 29.4903 68.3775C29.4956 67.5868 29.5413 58.5797 29.5413 58.5797C17.9213 55.3536 18.5987 43.2249 18.7304 36.8737C18.8622 30.5225 20.0553 25.3195 23.5995 21.8202C29.9674 16.0524 43.0854 16.9142 43.0854 16.9142C54.1633 16.9626 59.4716 20.2985 60.7025 21.416C64.7896 24.9154 66.8719 33.2891 65.3493 45.5566V45.5601Z" fill="#FDFDFD"/>
<path d="M48.7175 36.3516C48.5734 33.4471 47.098 31.9216 44.2913 31.7751" stroke="#FDFDFD" stroke-width="1.48127" stroke-linecap="round" stroke-linejoin="round"/>
<path d="M52.5175 37.6255C52.5761 34.9195 51.7745 32.6586 50.1128 30.8429C48.4436 29.0208 46.1329 28.0174 43.1677 27.8004" stroke="#FDFDFD" stroke-width="1.48127" stroke-linecap="round" stroke-linejoin="round"/>
<path d="M56.408 39.1473C56.3722 34.4516 54.9692 30.7534 52.1987 28.0526C49.4283 25.3519 45.9828 23.9872 41.8623 23.9585" stroke="#FDFDFD" stroke-width="1.48127" stroke-linecap="round" stroke-linejoin="round"/>
<path d="M44.4381 46.2719C44.4381 46.2719 45.4792 46.3597 46.0397 45.6692L47.1327 44.2942C47.6598 43.6124 48.932 43.1775 50.1778 43.8716C51.1114 44.4041 52.0178 44.9829 52.8935 45.6059C53.7202 46.2139 55.4132 47.6266 55.4185 47.6266C56.225 48.3075 56.4113 49.3073 55.8622 50.3616C55.8622 50.3678 55.8578 50.3783 55.8578 50.3836C55.253 51.432 54.4852 52.3775 53.5832 53.1845C53.5726 53.1898 53.5726 53.195 53.563 53.2003C52.7793 53.8551 52.0094 54.2274 51.2532 54.317C51.1419 54.3365 51.0287 54.3435 50.9158 54.3381C50.5824 54.3413 50.2506 54.2902 49.9336 54.1869L49.909 54.1509C48.744 53.8223 46.7988 53 43.5595 51.213C41.685 50.191 39.9004 49.0122 38.2248 47.689C37.385 47.0262 36.5839 46.3157 35.8255 45.5611L35.7446 45.4803L35.6638 45.3995L35.583 45.3177C35.5557 45.2914 35.5294 45.2642 35.5021 45.2369C34.7475 44.4785 34.0371 43.6774 33.3742 42.8375C32.0513 41.1621 30.8724 39.3778 29.8503 37.5037C28.0633 34.2635 27.2409 32.3201 26.9123 31.1534L26.8763 31.1288C26.7733 30.8117 26.7226 30.4799 26.7261 30.1465C26.7199 30.0337 26.7267 29.9205 26.7463 29.8092C26.8406 29.0548 27.2134 28.2846 27.8647 27.4985C27.87 27.4889 27.8752 27.4889 27.8805 27.4783C28.6873 26.5763 29.6328 25.8087 30.6814 25.2046C30.6867 25.2046 30.6972 25.1993 30.7034 25.1993C31.7577 24.6502 32.7575 24.8364 33.4375 25.6386C33.4428 25.6439 34.8529 27.3369 35.4582 28.1636C36.0813 29.0402 36.6602 29.9474 37.1925 30.8819C37.8866 32.1268 37.4517 33.4017 36.7699 33.927L35.395 35.02C34.7009 35.5805 34.7923 36.6216 34.7923 36.6216C34.7923 36.6216 36.8288 44.3293 44.4381 46.2719Z" fill="#FDFDFD"/>
</g>
<defs>
<clipPath id="clip0_343_3165">
<rect width="55.525" height="58.5508" fill="white" transform="translate(14.5 12.7383)"/>
</clipPath>
</defs>
</svg>
